<svg width="12" height="17" viewBox="0 0 12 17" fill="none" xmlns="http://www.w3.org/2000/svg">
<path d="M11.9863 14.7742C11.9863 15.6277 11.2944 16.3196 10.4408 16.3196C9.5873 16.3196 8.89538 15.6277 8.89538 14.7742C8.89538 13.2713 7.62506 12.0355 6.03709 12.0355C4.44912 12.0355 3.1788 13.2713 3.1788 14.7742C3.1788 15.6277 2.48688 16.3196 1.63335 16.3196C0.779814 16.3196 0.0878906 15.6277 0.0878906 14.7742C0.0878906 11.5449 2.76082 8.94458 6.03709 8.94458C9.31336 8.94458 11.9863 11.5449 11.9863 14.7742Z" fill="#3F4658"/>
<path fill-rule="evenodd" clip-rule="evenodd" d="M0.0878906 5.96654C0.0878906 9.1958 2.76082 11.7961 6.03709 11.7961C9.31336 11.7961 11.9863 9.1958 11.9863 5.96654C11.9863 2.73729 9.31336 0.136963 6.03709 0.136963C2.76082 0.136963 0.0878906 2.73729 0.0878906 5.96654ZM8.8948 5.9665C8.8948 7.46936 7.62448 8.70517 6.03651 8.70517C4.44854 8.70517 3.17822 7.46936 3.17822 5.9665C3.17822 4.46364 4.44854 3.22783 6.03651 3.22783C7.62448 3.22783 8.8948 4.46364 8.8948 5.9665Z" fill="#404759"/>
</svg>
