<svg width="19" height="19" viewBox="0 0 19 19" fill="none" xmlns="http://www.w3.org/2000/svg">
<path d="M10.4677 9.07471C10.4677 9.8594 9.82627 10.4978 9.03785 10.4978C8.24944 10.4978 7.60803 9.8594 7.60803 9.07471C7.60803 8.28999 8.24944 7.65159 9.03785 7.65159C9.82627 7.65159 10.4677 8.29002 10.4677 9.07471ZM9.03788 8.46997C8.70283 8.46997 8.43027 8.74126 8.43027 9.07474C8.43027 9.40819 8.70283 9.67947 9.03788 9.67947C9.37293 9.67947 9.64549 9.40819 9.64549 9.07474C9.64546 8.74126 9.3729 8.46997 9.03788 8.46997Z" fill="url(#paint0_linear)"/>
<path d="M10.4677 9.07471C10.4677 9.8594 9.82627 10.4978 9.03785 10.4978C8.24944 10.4978 7.60803 9.8594 7.60803 9.07471C7.60803 8.28999 8.24944 7.65159 9.03785 7.65159C9.82627 7.65159 10.4677 8.29002 10.4677 9.07471ZM9.03788 8.46997C8.70283 8.46997 8.43027 8.74126 8.43027 9.07474C8.43027 9.40819 8.70283 9.67947 9.03788 9.67947C9.37293 9.67947 9.64549 9.40819 9.64549 9.07474C9.64546 8.74126 9.3729 8.46997 9.03788 8.46997Z" fill="#3F4658"/>
<path d="M1.19437 9.3459L4.1223 6.43171L5.99423 6.84359C6.29775 6.5144 6.62488 6.2044 6.97465 5.91697C8.79208 4.42354 11.0938 3.64003 13.4557 3.71081L14.3388 3.73726L14.3654 4.61631C14.4365 6.96716 13.6493 9.25805 12.1489 11.0669C11.8601 11.4151 11.5486 11.7407 11.2179 12.0427L11.6317 13.9059L8.70381 16.8201L7.33809 14.215C7.10513 14.282 6.86926 14.3402 6.63086 14.3896L5.25199 15.762L4.58817 15.1013L5.65765 14.0368L5.15609 13.5376L4.64159 14.0497L3.97777 13.389L4.49227 12.8769L3.99071 12.3777L2.92123 13.4422L2.25741 12.7815L3.63627 11.4091C3.68591 11.1718 3.74443 10.937 3.8117 10.7052L1.19437 9.3459ZM4.42217 7.45465L2.7626 9.10644L4.11949 9.81115C4.42666 9.04433 4.83192 8.31899 5.32455 7.6532L4.42217 7.45465ZM13.4274 4.64476C12.2545 4.60963 11.1181 4.81168 10.0693 5.20863L12.8607 7.98696C13.2596 6.94305 13.4626 5.81205 13.4274 4.64476ZM8.94438 15.2592L10.604 13.6074L10.4045 12.7093C9.73556 13.1996 9.0068 13.603 8.23635 13.9087L8.94438 15.2592ZM6.42841 12.2713L5.81993 12.8769L6.42436 13.4785C9.07659 12.9337 11.2596 11.194 12.4509 8.90043L9.15142 5.61646C6.84702 6.80201 5.09903 8.97483 4.55168 11.6146L5.15611 12.2162L5.76459 11.6106L6.42841 12.2713Z" fill="url(#paint1_linear)"/>
<path d="M1.19437 9.3459L4.1223 6.43171L5.99423 6.84359C6.29775 6.5144 6.62488 6.2044 6.97465 5.91697C8.79208 4.42354 11.0938 3.64003 13.4557 3.71081L14.3388 3.73726L14.3654 4.61631C14.4365 6.96716 13.6493 9.25805 12.1489 11.0669C11.8601 11.4151 11.5486 11.7407 11.2179 12.0427L11.6317 13.9059L8.70381 16.8201L7.33809 14.215C7.10513 14.282 6.86926 14.3402 6.63086 14.3896L5.25199 15.762L4.58817 15.1013L5.65765 14.0368L5.15609 13.5376L4.64159 14.0497L3.97777 13.389L4.49227 12.8769L3.99071 12.3777L2.92123 13.4422L2.25741 12.7815L3.63627 11.4091C3.68591 11.1718 3.74443 10.937 3.8117 10.7052L1.19437 9.3459ZM4.42217 7.45465L2.7626 9.10644L4.11949 9.81115C4.42666 9.04433 4.83192 8.31899 5.32455 7.6532L4.42217 7.45465ZM13.4274 4.64476C12.2545 4.60963 11.1181 4.81168 10.0693 5.20863L12.8607 7.98696C13.2596 6.94305 13.4626 5.81205 13.4274 4.64476ZM8.94438 15.2592L10.604 13.6074L10.4045 12.7093C9.73556 13.1996 9.0068 13.603 8.23635 13.9087L8.94438 15.2592ZM6.42841 12.2713L5.81993 12.8769L6.42436 13.4785C9.07659 12.9337 11.2596 11.194 12.4509 8.90043L9.15142 5.61646C6.84702 6.80201 5.09903 8.97483 4.55168 11.6146L5.15611 12.2162L5.76459 11.6106L6.42841 12.2713Z" fill="#3F4658"/>
<path d="M3.7951 15.2417H2.84189V14.293H3.7951V15.2417Z" fill="url(#paint2_linear)"/>
<path d="M3.7951 15.2417H2.84189V14.293H3.7951V15.2417Z" fill="#3F4658"/>
<defs>
<linearGradient id="paint0_linear" x1="7.60748" y1="9.0747" x2="10.4682" y2="9.0747" gradientUnits="userSpaceOnUse">
<stop stop-color="#E58ED3"/>
<stop offset="0.17" stop-color="#DE8CD5"/>
<stop offset="0.41" stop-color="#CC86DC"/>
<stop offset="0.69" stop-color="#AE7CE6"/>
<stop offset="1" stop-color="#856EF5"/>
</linearGradient>
<linearGradient id="paint1_linear" x1="12.803" y1="12.7431" x2="5.32595" y2="5.23081" gradientUnits="userSpaceOnUse">
<stop stop-color="#E58ED3"/>
<stop offset="0.17" stop-color="#DE8CD5"/>
<stop offset="0.41" stop-color="#CC86DC"/>
<stop offset="0.69" stop-color="#AE7CE6"/>
<stop offset="1" stop-color="#856EF5"/>
</linearGradient>
<linearGradient id="paint2_linear" x1="3.79529" y1="14.7673" x2="2.84171" y2="14.7673" gradientUnits="userSpaceOnUse">
<stop stop-color="#E58ED3"/>
<stop offset="0.17" stop-color="#DE8CD5"/>
<stop offset="0.41" stop-color="#CC86DC"/>
<stop offset="0.69" stop-color="#AE7CE6"/>
<stop offset="1" stop-color="#856EF5"/>
</linearGradient>
</defs>
</svg>
