<svg version="1.1" id="Capa_1" xmlns="http://www.w3.org/2000/svg" x="0" y="0" viewBox="0 0 480 480" xml:space="preserve"><path d="M440 464v-41.424A39.36 39.36 0 00464 384c0-22.056-14.352-40-32-40s-32 17.944-32 40a39.36 39.36 0 0024 38.576V464h-40V216a8.001 8.001 0 00-4.424-7.16L320 179.056V136a8 8 0 00-5.8-7.696L208 97.96V8a8 8 0 00-8-8H40a8 8 0 00-8 8v456H0v16h480v-16h-40zm-248 0H48v-16h72v-16H48v-32h72v-16H48v-32h72v-16H48v-32h72v-16H48v-32h72v-16H48v-32h72v-16H48v-32h72v-16H48v-32h72V96H48V64h72V48H48V16h144v448zm112 0h-96v-16h56v-16h-56v-32h56v-16h-56v-32h56v-16h-56v-32h56v-16h-56v-32h56v-16h-56v-32h56v-16h-56v-32h56v-16h-56v-29.392l96 27.424V464zm64 0h-48v-16h24v-16h-24v-32h24v-16h-24v-32h24v-16h-24v-32h24v-16h-24v-32h24v-16h-24v-43.056l48 24V464zm56-59.44a27.953 27.953 0 01-8-20.56c0-13.008 7.328-24 16-24s16 10.992 16 24a28.003 28.003 0 01-8 20.56V392h-16v12.56z"/></svg>